<svg width="80" height="24" viewBox="0 0 80 24" fill="none" xmlns="http://www.w3.org/2000/svg">
<g id="Group 4 Copy 2">
<path id="Fill 1" fill-rule="evenodd" clip-rule="evenodd" d="M0 7.55609V7.61529L13.5246 13.9679L27.0968 7.59367V7.57767L13.5246 1.20372L0 7.55609ZM4.87581 7.58584L13.5248 3.52348L22.1747 7.58584L13.5246 11.6479L4.87581 7.58584ZM13.5246 16.4353L0 10.1778V12.4922L13.5246 18.764L27.0968 12.4709V10.1562L13.5246 16.4353ZM13.5246 21.1293L0 14.8712V17.1856L13.5246 23.4583L27.0968 17.1643V14.8498L13.5246 21.1293Z" fill="white"/>
<path id="Fill 2" fill-rule="evenodd" clip-rule="evenodd" d="M76.9163 12.1019C76.9163 11.5652 76.8236 11.0648 76.638 10.6006C76.4524 10.1365 76.199 9.73035 75.8778 9.38222C75.5566 9.03408 75.1819 8.76211 74.7536 8.5663C74.3253 8.37049 73.8685 8.27257 73.3831 8.27257C72.8978 8.27257 72.4409 8.37049 72.0126 8.5663C71.5844 8.76211 71.2096 9.03408 70.8884 9.38222C70.5672 9.73035 70.3138 10.1365 70.1282 10.6006C69.9427 11.0648 69.8499 11.5652 69.8499 12.1019C69.8499 12.6386 69.9427 13.1391 70.1282 13.6032C70.3138 14.0674 70.5672 14.4735 70.8884 14.8216C71.2096 15.1698 71.5844 15.4418 72.0126 15.6376C72.4409 15.8334 72.8978 15.9313 73.3831 15.9313C73.8685 15.9313 74.3253 15.8334 74.7536 15.6376C75.1819 15.4418 75.5566 15.1698 75.8778 14.8216C76.199 14.4735 76.4524 14.0674 76.638 13.6032C76.8236 13.1391 76.9163 12.6386 76.9163 12.1019ZM79.9999 12.1019C79.9999 13.0448 79.8286 13.9187 79.486 14.7237C79.1434 15.5288 78.6723 16.225 78.0727 16.8125C77.4731 17.3999 76.77 17.8641 75.9635 18.205C75.1568 18.5458 74.2968 18.7163 73.3831 18.7163C72.4694 18.7163 71.6129 18.5458 70.8135 18.205C70.014 17.8641 69.3145 17.3963 68.7149 16.8016C68.1154 16.2069 67.6443 15.507 67.3017 14.702C66.959 13.897 66.7877 13.0303 66.7877 12.1019C66.7877 11.1881 66.9626 10.3287 67.3123 9.52363C67.6621 8.71859 68.1368 8.01509 68.7364 7.41313C69.3359 6.81116 70.0354 6.33976 70.8349 5.99888C71.6343 5.65802 72.4837 5.48757 73.3831 5.48757C74.2968 5.48757 75.1568 5.65802 75.9635 5.99888C76.77 6.33976 77.4731 6.80391 78.0727 7.39137C78.6723 7.97884 79.1434 8.67871 79.486 9.49099C79.8286 10.3033 79.9999 11.1736 79.9999 12.1019ZM65.717 18.3246C65.4743 18.4407 65.1995 18.535 64.8926 18.6075C64.5857 18.68 64.2681 18.7163 63.9397 18.7163C63.4829 18.7163 63.0439 18.6546 62.6228 18.5314C62.2017 18.4081 61.834 18.2086 61.52 17.933C61.2059 17.6574 60.9561 17.2984 60.7705 16.856C60.5849 16.4136 60.4921 15.8805 60.4921 15.2568V0.330994H63.6399V14.7129C63.6399 15.235 63.7434 15.594 63.9504 15.7899C64.1574 15.9857 64.4037 16.0836 64.6892 16.0836C65.0461 16.0836 65.3887 15.9748 65.717 15.7572V18.3247V18.3246ZM59.1002 5.79219L53.5327 20.7398C53.1187 21.8567 52.5762 22.6617 51.9052 23.1549C51.2343 23.6481 50.4349 23.8946 49.5069 23.8946C49.3642 23.8946 49.2071 23.8838 49.0358 23.862C48.8645 23.8402 48.7003 23.8076 48.5433 23.7641L47.5155 20.8486C47.7582 20.9646 48.008 21.0552 48.265 21.1205C48.5219 21.1858 48.7646 21.2184 48.993 21.2184C49.4784 21.2184 49.9209 21.106 50.3206 20.8812C50.7204 20.6564 51.0273 20.2393 51.2414 19.6301L51.6697 18.3682L46.8945 5.79219H50.2564L53.1044 13.8861L55.7811 5.79219H59.1002ZM46.145 3.89926H38.0935V7.9462H46.0379V10.6877H38.0935V18.3899H34.8386V1.00547H46.145V3.89926Z" fill="white"/>
</g>
</svg>
